<svg width="26" height="24" viewBox="0 0 26 24" fill="none" xmlns="http://www.w3.org/2000/svg">
<path d="M25.9999 18V24H11.4368C7.19397 24 3.48941 21.5869 1.50737 18C1.21923 17.4786 0.96705 16.9315 0.75551 16.3636C0.340239 15.2509 0.0791982 14.0569 0 12.8111V11.1889C0.0171943 10.9113 0.0442884 10.6358 0.0797191 10.3636C0.152144 9.80513 0.261562 9.25856 0.405369 8.72725C1.76581 3.69054 6.18944 0 11.4368 0C16.6843 0 21.1073 3.69054 22.4678 8.72725H16.2409C15.2185 7.08546 13.4491 6 11.4368 6C9.42458 6 7.65515 7.08546 6.63285 8.72725C6.32126 9.22637 6.0795 9.77671 5.9211 10.3636C5.78042 10.884 5.70539 11.4328 5.70539 12C5.70539 13.7198 6.39629 15.27 7.504 16.3636C8.53045 17.3787 9.91432 18 11.4368 18H25.9999Z" fill="#FD366E"/>
<path d="M26 10.3636V16.3636H15.3698C16.4774 15.27 17.1684 13.7198 17.1684 11.9999C17.1684 11.4327 17.0933 10.8839 16.9526 10.3636H26Z" fill="#FD366E"/>
</svg>
