<svg width="23" height="25" viewBox="0 0 23 25" fill="none" xmlns="http://www.w3.org/2000/svg">
<g clip-path="url(#clip0_34_61)">
<path d="M0.207825 6.50432L2.284 7.73481L12.9813 1.43399L10.8829 0.203491L0.207825 6.50432Z" fill="white"/>
<path fill-rule="evenodd" clip-rule="evenodd" d="M10.7871 0.0348789C10.8162 0.0177472 10.8492 0.00872803 10.8829 0.00872803C10.9165 0.00872803 10.9495 0.0177472 10.9786 0.0348789L13.077 1.26537C13.1063 1.28245 13.1307 1.30712 13.1476 1.33687C13.1645 1.36662 13.1734 1.40041 13.1734 1.4348C13.1734 1.4692 13.1645 1.50298 13.1476 1.53273C13.1307 1.56249 13.1063 1.58715 13.077 1.60423L2.38052 7.90427C2.35131 7.92155 2.31814 7.93065 2.28437 7.93065C2.2506 7.93065 2.21743 7.92155 2.18822 7.90427L0.112052 6.67222C0.0829386 6.65508 0.0587626 6.63044 0.0419539 6.60077C0.0251453 6.5711 0.0162964 6.53744 0.0162964 6.50318C0.0162964 6.46892 0.0251453 6.43526 0.0419539 6.40559C0.0587626 6.37592 0.0829386 6.35128 0.112052 6.33414L10.7871 0.0340981V0.0348789ZM10.8829 0.429949L0.590874 6.50435L2.28552 7.50842L12.5974 1.4348L10.8829 0.429949Z" fill="black"/>
<path d="M0.207825 6.50432V19.1036L2.30698 20.3341L2.284 7.73482L0.207825 6.50432Z" fill="white"/>
<path fill-rule="evenodd" clip-rule="evenodd" d="M0.112827 6.33413C0.141943 6.317 0.174971 6.30798 0.208591 6.30798C0.242212 6.30798 0.27524 6.317 0.304356 6.33413L2.38053 7.56541C2.40959 7.58251 2.43373 7.60709 2.45054 7.63669C2.46734 7.66628 2.47622 7.69986 2.47629 7.73406L2.49851 20.3341C2.49879 20.3686 2.49011 20.4026 2.47334 20.4325C2.45657 20.4625 2.43232 20.4873 2.40305 20.5046C2.37379 20.5219 2.34055 20.531 2.30672 20.531C2.27288 20.5309 2.23967 20.5217 2.21045 20.5044L0.112827 19.2731C0.0835126 19.256 0.0591451 19.2314 0.0421932 19.2016C0.0252413 19.1718 0.0163073 19.1381 0.0162964 19.1037L0.0162964 6.50434C0.0163073 6.46994 0.0252413 6.43615 0.0421932 6.40639C0.0591451 6.37664 0.0835126 6.3512 0.112827 6.33413ZM0.40012 6.84398V18.9904L2.11392 19.9961L2.09247 7.84727L0.40012 6.84398Z" fill="black"/>
<path d="M2.284 7.73485L12.9813 1.43402V14.0349L2.30621 20.3349L2.28476 7.73407L2.284 7.73485Z" fill="black"/>
<path fill-rule="evenodd" clip-rule="evenodd" d="M13.077 1.26535C13.1062 1.28251 13.1304 1.30721 13.1472 1.33696C13.164 1.36671 13.1729 1.40045 13.1728 1.43478V14.0349C13.1727 14.0691 13.1638 14.1026 13.147 14.1322C13.1302 14.1618 13.1061 14.1864 13.077 14.2035L2.40275 20.5043C2.37358 20.5217 2.34044 20.5309 2.30667 20.5309C2.27291 20.531 2.23972 20.522 2.21048 20.5048C2.18123 20.4876 2.15697 20.4628 2.14015 20.433C2.12332 20.4032 2.11454 20.3693 2.11469 20.3349L2.09247 7.73482C2.0924 7.70049 2.10122 7.66675 2.11803 7.637C2.13485 7.60726 2.15906 7.58256 2.18823 7.56539L12.8847 1.26535C12.9139 1.24822 12.9469 1.2392 12.9805 1.2392C13.0141 1.2392 13.0479 1.24822 13.077 1.26535ZM2.47553 7.84725L2.49851 19.9961L12.7897 13.9217V1.77285L2.47782 7.84725H2.47553Z" fill="black"/>
<path d="M3.88367 8.66003L5.95984 9.89131L16.6563 3.59048L14.5587 2.35999L3.88367 8.66003Z" fill="white"/>
<path fill-rule="evenodd" clip-rule="evenodd" d="M14.4622 2.19137C14.4913 2.17424 14.5243 2.16522 14.5579 2.16522C14.5915 2.16522 14.6246 2.17424 14.6537 2.19137L16.7528 3.42187C16.7821 3.43895 16.8065 3.46361 16.8234 3.49336C16.8403 3.52312 16.8493 3.5569 16.8493 3.5913C16.8493 3.62569 16.8403 3.65948 16.8234 3.68923C16.8065 3.71898 16.7821 3.74364 16.7528 3.76072L6.05633 10.0608C6.02704 10.0782 5.99372 10.0874 5.9598 10.0874C5.92588 10.0874 5.89257 10.0782 5.86327 10.0608L3.7871 8.82949C3.75799 8.81236 3.73381 8.78772 3.717 8.75805C3.70019 8.72837 3.69135 8.69472 3.69135 8.66045C3.69135 8.62619 3.70019 8.59253 3.717 8.56286C3.73381 8.53319 3.75799 8.50855 3.7871 8.49142L14.4622 2.19137ZM14.5587 2.58644L4.26592 8.66084L5.96057 9.66492L16.2725 3.5913L14.5587 2.58644Z" fill="black"/>
<path d="M3.88367 8.66003V21.2609L5.98206 22.4914L5.95984 9.89209L3.88367 8.66003Z" fill="white"/>
<path fill-rule="evenodd" clip-rule="evenodd" d="M3.7879 8.49061C3.81711 8.47333 3.85028 8.46423 3.88405 8.46423C3.91782 8.46423 3.95099 8.47333 3.9802 8.49061L6.05637 9.72189C6.08543 9.73898 6.10957 9.76356 6.12638 9.79316C6.14319 9.82276 6.15207 9.85634 6.15214 9.89053L6.17359 22.4906C6.17379 22.525 6.16509 22.5588 6.14836 22.5886C6.13163 22.6185 6.10747 22.6433 6.07832 22.6605C6.04917 22.6778 6.01606 22.6869 5.98234 22.687C5.94863 22.687 5.91549 22.678 5.88629 22.6608L3.7879 21.4296C3.75873 21.4124 3.73452 21.3877 3.7177 21.3579C3.70089 21.3282 3.69207 21.2945 3.69214 21.2601V8.66004C3.69207 8.62571 3.70089 8.59197 3.7177 8.56222C3.73452 8.53248 3.75873 8.50777 3.7879 8.49061ZM4.07596 9.00045V21.1469L5.789 22.1525L5.76831 10.0037L4.07596 9.00045Z" fill="black"/>
<path d="M5.95984 9.89134L16.6563 3.59052V16.1914L5.98206 22.4914L5.95984 9.89134Z" fill="black"/>
<path fill-rule="evenodd" clip-rule="evenodd" d="M16.7521 3.42184C16.7814 3.43891 16.8058 3.46357 16.8227 3.49332C16.8397 3.52307 16.8486 3.55686 16.8486 3.59127V16.1914C16.8486 16.2256 16.8397 16.2591 16.8229 16.2887C16.8061 16.3183 16.7819 16.3429 16.7529 16.36L6.07782 22.6608C6.04866 22.6782 6.01551 22.6874 5.98175 22.6874C5.94798 22.6875 5.9148 22.6785 5.88555 22.6613C5.85631 22.6441 5.83205 22.6193 5.81522 22.5895C5.7984 22.5597 5.78962 22.5258 5.78976 22.4914L5.76831 9.89131C5.76824 9.85699 5.77706 9.82325 5.79388 9.7935C5.81069 9.76375 5.8349 9.73905 5.86408 9.72189L16.5606 3.42184C16.5897 3.40471 16.6227 3.39569 16.6563 3.39569C16.69 3.39569 16.723 3.40471 16.7521 3.42184ZM6.1529 10.0037L6.17359 22.1525L16.4656 16.0781V3.92934L6.1529 10.0037Z" fill="black"/>
<path d="M5.96362 11.9994L9.85702 24.7978L12.078 24.0569L8.02984 11.2429L5.96362 11.9994Z" fill="white"/>
<path fill-rule="evenodd" clip-rule="evenodd" d="M8.11412 11.068C8.13739 11.0794 8.15815 11.0956 8.17513 11.1154C8.19212 11.1353 8.20498 11.1585 8.21295 11.1835L12.2603 23.9968C12.276 24.0459 12.272 24.0995 12.249 24.1456C12.226 24.1917 12.186 24.2266 12.1378 24.2427L9.91602 24.9837C9.89184 24.9918 9.86631 24.9949 9.84093 24.9928C9.81555 24.9907 9.79083 24.9835 9.76822 24.9716C9.74561 24.9597 9.72556 24.9433 9.70923 24.9234C9.69291 24.9034 9.68065 24.8804 9.67316 24.8556L5.78053 12.0572C5.7658 12.009 5.76993 11.9569 5.79207 11.9118C5.81421 11.8667 5.85263 11.832 5.89928 11.8152L7.96549 11.0594C7.98964 11.0504 8.0153 11.0465 8.04097 11.0478C8.06663 11.0491 8.09177 11.0557 8.11489 11.0672L8.11412 11.068ZM6.2019 12.1204L9.98268 24.5503L11.8367 23.9312L7.90727 11.4958L6.20113 12.1204H6.2019Z" fill="black"/>
<path d="M16.6548 6.17644L20.5482 18.9748L22.7692 18.2339L18.721 5.42065L16.6548 6.17644Z" fill="white"/>
<path fill-rule="evenodd" clip-rule="evenodd" d="M18.806 5.24494C18.8292 5.25649 18.8498 5.27268 18.8666 5.29253C18.8835 5.31239 18.8962 5.3355 18.9041 5.36049L22.9515 18.1745C22.967 18.2236 22.9628 18.2769 22.9398 18.3229C22.9168 18.3688 22.877 18.4036 22.8289 18.4197L20.6072 19.1606C20.583 19.1686 20.5576 19.1716 20.5323 19.1695C20.507 19.1674 20.4824 19.1601 20.4599 19.1482C20.4373 19.1363 20.4174 19.1199 20.4011 19.1001C20.3848 19.0802 20.3726 19.0573 20.3651 19.0326L16.4717 6.23418C16.457 6.18601 16.4611 6.13391 16.4832 6.08878C16.5054 6.04366 16.5438 6.00902 16.5904 5.99214L18.6567 5.23635C18.6808 5.22749 18.7065 5.22369 18.7322 5.22516C18.7579 5.22664 18.783 5.23336 18.806 5.24494ZM16.8931 6.29742L20.6738 18.7273L22.5278 18.1089L18.5992 5.6728L16.8931 6.29742Z" fill="black"/>
<path d="M8.02985 11.2436L18.721 5.42065L22.7699 18.2339L12.0788 24.0569L8.03061 11.2429L8.02985 11.2436Z" fill="white"/>
<path fill-rule="evenodd" clip-rule="evenodd" d="M18.7938 5.23951C18.8197 5.25024 18.8431 5.26663 18.8621 5.28754C18.8812 5.30845 18.8955 5.33337 18.9041 5.36053L22.9515 18.1746C22.9652 18.2181 22.9636 18.2651 22.9468 18.3075C22.93 18.3499 22.8991 18.3849 22.8596 18.4064L12.1684 24.2294C12.1436 24.2431 12.1162 24.251 12.0881 24.2526C12.06 24.2542 12.0319 24.2495 12.0057 24.2387C11.9796 24.228 11.9562 24.2115 11.937 24.1905C11.9178 24.1694 11.9035 24.1443 11.8949 24.117L7.84753 11.303C7.83379 11.2595 7.83547 11.2124 7.85227 11.1701C7.86907 11.1277 7.89992 11.0927 7.93946 11.0711L18.6306 5.24732C18.6553 5.23371 18.6827 5.22581 18.7108 5.22419C18.7389 5.22257 18.7669 5.22727 18.793 5.23795L18.7938 5.23951ZM8.262 11.3389L12.1899 23.7742L22.537 18.1386L18.6099 5.70329L8.26276 11.3389H8.262Z" fill="black"/>
<path d="M8.02984 11.2436L5.96362 11.9994L16.6548 6.17644L18.721 5.42065L8.02984 11.2429V11.2436Z" fill="white"/>
<path fill-rule="evenodd" clip-rule="evenodd" d="M18.8964 5.34101C18.9163 5.38611 18.9187 5.43722 18.9031 5.48404C18.8874 5.53085 18.8549 5.56986 18.8121 5.5932L8.11947 11.4154C8.11134 11.42 8.10289 11.4239 8.09419 11.4271L6.02798 12.1837C5.98155 12.2047 5.92883 12.2061 5.88142 12.1875C5.83401 12.1689 5.79578 12.1318 5.77516 12.0845C5.75454 12.0372 5.7532 11.9835 5.77145 11.9352C5.7897 11.8869 5.82603 11.8479 5.87246 11.8269L16.5644 6.00389C16.5728 5.99935 16.5815 5.99543 16.5904 5.99217L18.6566 5.23639C18.7022 5.21973 18.7522 5.22126 18.7967 5.24067C18.8412 5.26008 18.8768 5.29593 18.8964 5.34101Z" fill="black"/>
<path d="M14.109 10.1997L13.3881 10.5753L12.6679 10.9508L12.0842 19.8454L13.5015 20.4911L14.5817 13.3751L20.2318 16.9846L20.6853 15.3661L14.109 10.1997Z" fill="black"/>
<path fill-rule="evenodd" clip-rule="evenodd" d="M14.0224 10.0256C14.0547 10.0089 14.091 10.0019 14.1271 10.0053C14.1632 10.0088 14.1975 10.0226 14.2262 10.0451L20.8026 15.2107C20.8329 15.2347 20.8554 15.2674 20.8673 15.3045C20.8792 15.3417 20.8799 15.3816 20.8692 15.4192L20.4172 17.0385C20.4092 17.0679 20.3945 17.0949 20.3744 17.1175C20.3543 17.1401 20.3293 17.1575 20.3013 17.1684C20.2734 17.1794 20.2433 17.1835 20.2136 17.1804C20.1838 17.1774 20.1551 17.1673 20.1299 17.1509L14.7265 13.6984L13.6915 20.5208C13.687 20.5505 13.6758 20.5788 13.6588 20.6035C13.6418 20.6281 13.6195 20.6484 13.5935 20.6627C13.5676 20.6771 13.5387 20.6852 13.5092 20.6863C13.4796 20.6874 13.4503 20.6815 13.4233 20.6691L12.006 20.0242C11.9702 20.008 11.9401 19.9809 11.9198 19.9467C11.8995 19.9125 11.89 19.8728 11.8926 19.8329L12.4764 10.9383C12.4784 10.9046 12.489 10.8719 12.5072 10.8436C12.5253 10.8153 12.5503 10.7922 12.5798 10.7767L14.0224 10.0256ZM12.8518 11.075L12.2849 19.7228L13.3498 20.2077L14.3917 13.3447C14.3965 13.3127 14.409 13.2824 14.4282 13.2566C14.4473 13.2308 14.4724 13.2102 14.5013 13.1967C14.5302 13.1832 14.5619 13.1773 14.5936 13.1794C14.6252 13.1815 14.6559 13.1916 14.6828 13.2088L20.1176 16.6809L20.4647 15.4395L14.0883 10.4308L12.8518 11.075Z" fill="black"/>
</g>
<defs>
<clipPath id="clip0_34_61">
<rect width="23" height="25" fill="white"/>
</clipPath>
</defs>
</svg>
