<svg width="16" height="24" viewBox="0 0 16 24" fill="none" xmlns="http://www.w3.org/2000/svg">
<g clip-path="url(#clip0_33_46)">
<path d="M8 12C8 9.7909 9.79048 8 11.9992 8C14.2079 8 15.9984 9.7909 15.9984 12C15.9984 14.2092 14.2079 16 11.9992 16C9.79048 16 8 14.2092 8 12Z" fill="#1ABCFE"/>
<path d="M0.00158691 20C0.00158691 17.7909 1.79207 16 4.00079 16H7.99999V20C7.99999 22.2092 6.2095 24 4.00079 24C1.79207 24 0.00158691 22.2092 0.00158691 20Z" fill="#0ACF83"/>
<path d="M8 6.10352e-05V8H11.9992C14.2079 8 15.9984 6.20916 15.9984 4.00001C15.9984 1.79085 14.2079 6.10352e-05 11.9992 6.10352e-05H8Z" fill="#FF7262"/>
<path d="M0.00170898 4C0.00170898 6.20916 1.79219 8 4.00091 8H8.00011V0H4.00091C1.79219 0 0.00170898 1.7909 0.00170898 4Z" fill="#F24E1E"/>
<path d="M0.00158691 12C0.00158691 14.2092 1.79207 16 4.00079 16H7.99999V8H4.00079C1.79207 8 0.00158691 9.7909 0.00158691 12Z" fill="#A259FF"/>
</g>
<defs>
<clipPath id="clip0_33_46">
<rect width="16" height="24" fill="white"/>
</clipPath>
</defs>
</svg>
