<svg width="62" height="50" viewBox="0 0 62 50" fill="none" xmlns="http://www.w3.org/2000/svg">
<g clip-path="url(#clip0_33_53)">
<path d="M51.2855 22.8345C51.2855 20.1092 47.8914 17.5264 42.6876 15.9247C43.8885 10.5914 43.3548 6.34826 41.0029 4.98977C40.4608 4.67111 39.8272 4.52016 39.135 4.52016V6.39019C39.5186 6.39019 39.8272 6.46566 40.0856 6.60821C41.2198 7.26229 41.7119 9.75285 41.3281 12.9562C41.2366 13.7444 41.0865 14.5746 40.903 15.4216C39.2683 15.0191 37.4837 14.7088 35.6074 14.5075C34.4816 12.9562 33.3141 11.5474 32.1382 10.3147C34.8568 7.77382 37.4088 6.38179 39.1434 6.38179V4.51178C36.8499 4.51178 33.8478 6.15538 30.8123 9.00651C27.7766 6.17215 24.7745 4.54533 22.4812 4.54533V6.41533C24.2075 6.41533 26.7676 7.79899 29.4863 10.3231C28.3187 11.5558 27.1512 12.9562 26.042 14.5075C24.1573 14.7088 22.3727 15.0191 20.7382 15.43C20.5463 14.5914 20.4046 13.778 20.3045 12.9981C19.9127 9.79478 20.3962 7.30422 21.5222 6.64175C21.7722 6.49081 22.0975 6.42373 22.4812 6.42373V4.55371C21.7806 4.55371 21.1468 4.70466 20.5965 5.02331C18.253 6.38179 17.7277 10.6166 18.9369 15.9331C13.7498 17.5432 10.3723 20.1176 10.3723 22.8345C10.3723 25.56 13.7664 28.1428 18.9702 29.7443C17.7693 35.0777 18.303 39.3208 20.6549 40.6793C21.197 40.9979 21.8306 41.1488 22.5312 41.1488C24.8245 41.1488 27.8268 39.5053 30.8623 36.6542C33.8978 39.4886 36.9 41.1155 39.1933 41.1155C39.8938 41.1155 40.5276 40.9645 41.0781 40.6457C43.4214 39.2872 43.9468 35.0524 42.7375 29.7361C47.908 28.1343 51.2855 25.5515 51.2855 22.8345ZM40.4276 17.2413C40.119 18.3231 39.7354 19.4382 39.3017 20.5536C38.9599 19.8828 38.6013 19.2119 38.2093 18.541C37.8257 17.8702 37.417 17.2161 37.0084 16.5788C38.1925 16.7549 39.3351 16.9729 40.4276 17.2413ZM36.608 26.172C35.9576 27.3042 35.2906 28.3775 34.5984 29.3755C33.3557 29.4844 32.0966 29.5431 30.8289 29.5431C29.5696 29.5431 28.3103 29.4844 27.0762 29.3837C26.384 28.3858 25.7084 27.3209 25.058 26.1971C24.4241 25.0987 23.8489 23.9834 23.3234 22.8598C23.8405 21.736 24.4241 20.6123 25.0498 19.5138C25.7002 18.3818 26.3672 17.3084 27.0594 16.3105C28.3021 16.2014 29.5612 16.1428 30.8289 16.1428C32.0882 16.1428 33.3475 16.2014 34.5816 16.3021C35.2738 17.3 35.9494 18.3649 36.5998 19.4887C37.2337 20.5871 37.8089 21.7025 38.3344 22.8262C37.8089 23.9498 37.2337 25.0736 36.608 26.172ZM39.3017 25.082C39.7395 26.1748 40.1236 27.2886 40.4526 28.4194C39.3601 28.6877 38.2093 28.9142 37.0168 29.0903C37.4254 28.4447 37.8339 27.7822 38.2177 27.1028C38.6013 26.4321 38.9599 25.7527 39.3017 25.082ZM30.8455 34.0295C30.0699 33.2244 29.2944 32.3271 28.5272 31.346C29.2778 31.3796 30.0449 31.4047 30.8205 31.4047C31.6045 31.4047 32.38 31.3881 33.139 31.346C32.4231 32.2815 31.6575 33.1773 30.8455 34.0295ZM24.641 29.0903C23.4569 28.9142 22.3143 28.6961 21.2219 28.4278C21.5304 27.346 21.9142 26.2307 22.3477 25.1154C22.6897 25.7863 23.0483 26.4572 23.4401 27.128C23.8321 27.7989 24.2324 28.4529 24.641 29.0903ZM30.8039 11.6396C31.5795 12.4446 32.355 13.3419 33.1222 14.3231C32.3716 14.2895 31.6045 14.2644 30.8289 14.2644C30.0449 14.2644 29.2694 14.2811 28.5106 14.3231C29.2264 13.3877 29.9919 12.4919 30.8039 11.6396ZM24.6326 16.5788C24.2241 17.2245 23.8155 17.887 23.4319 18.5661C23.0483 19.237 22.6897 19.908 22.3477 20.5787C21.9099 19.4859 21.5259 18.3721 21.197 17.2413C22.2893 16.9813 23.4401 16.7549 24.6326 16.5788ZM17.0855 27.0777C14.1334 25.8114 12.2237 24.1512 12.2237 22.8345C12.2237 21.518 14.1334 19.8493 17.0855 18.5914C17.8027 18.2811 18.5866 18.0044 19.3956 17.7444C19.8709 19.388 20.4964 21.0987 21.2719 22.8514C20.5048 24.5956 19.8875 26.2978 19.4206 27.9331C18.595 27.6731 17.8111 27.388 17.0855 27.0777ZM21.5722 39.0609C20.438 38.4068 19.9459 35.9163 20.3297 32.7128C20.4214 31.9247 20.5713 31.0944 20.7548 30.2474C22.3895 30.65 24.1741 30.9603 26.0504 31.1615C27.1762 32.7128 28.3437 34.1216 29.5196 35.3543C26.801 37.8953 24.249 39.2872 22.5144 39.2872C22.1392 39.279 21.8224 39.2034 21.5722 39.0609ZM41.3533 32.671C41.7451 35.8743 41.2616 38.3648 40.1356 39.0273C39.8856 39.1783 39.5603 39.2454 39.1766 39.2454C37.4503 39.2454 34.8902 37.8617 32.1715 35.3376C33.3391 34.1049 34.5066 32.7046 35.6158 31.1531C37.5005 30.9519 39.2851 30.6416 40.9196 30.2307C41.1115 31.0777 41.2616 31.8911 41.3533 32.671ZM44.5639 27.0777C43.8467 27.388 43.0628 27.6648 42.2538 27.9247C41.7785 26.2811 41.153 24.5705 40.3775 22.8178C41.1448 21.0735 41.7619 19.3713 42.2288 17.736C43.0546 17.996 43.8383 18.2811 44.5723 18.5914C47.5244 19.8575 49.4341 21.518 49.4341 22.8345C49.4257 24.1512 47.516 25.8199 44.5639 27.0777Z" fill="#61DAFB"/>
<path d="M30.8205 26.6669C32.9255 26.6669 34.6318 24.9512 34.6318 22.8345C34.6318 20.7181 32.9255 19.0023 30.8205 19.0023C28.7158 19.0023 27.0095 20.7181 27.0095 22.8345C27.0095 24.9512 28.7158 26.6669 30.8205 26.6669ZM12.2301 47.7472H10.972V49.926H10.2621V44.5402H12.0352C12.6384 44.5402 13.1019 44.6784 13.4256 44.9546C13.7518 45.2306 13.9149 45.6327 13.9149 46.1603C13.9149 46.4958 13.8242 46.7879 13.6427 47.0371C13.4637 47.2862 13.2135 47.4724 12.8923 47.5956L14.1503 49.8815V49.926H13.3925L12.2301 47.7472ZM10.972 47.1665H12.0572C12.4079 47.1665 12.6863 47.0752 12.8923 46.8928C13.1007 46.7103 13.2049 46.4662 13.2049 46.1603C13.2049 45.8275 13.1056 45.5723 12.907 45.3947C12.7108 45.2171 12.4263 45.1271 12.0535 45.1247H10.972V47.1665ZM16.4532 50C15.9136 50 15.4746 49.8225 15.1362 49.4673C14.7977 49.1097 14.6285 48.6325 14.6285 48.0358V47.91C14.6285 47.513 14.7033 47.1592 14.8529 46.8485C15.005 46.5352 15.2159 46.291 15.4856 46.1161C15.7579 45.9385 16.0521 45.8496 16.3685 45.8496C16.886 45.8496 17.2882 46.021 17.575 46.3638C17.862 46.7066 18.0054 47.1973 18.0054 47.8359V48.1208H15.3091C15.3189 48.5155 15.4329 48.8348 15.6512 49.079C15.8719 49.3205 16.1515 49.4414 16.4899 49.4414C16.7303 49.4414 16.9337 49.3921 17.1004 49.2935C17.2673 49.1948 17.4132 49.0642 17.5383 48.9014L17.9539 49.2269C17.6203 49.7422 17.1202 50 16.4532 50ZM16.3685 46.412C16.0938 46.412 15.8633 46.513 15.6769 46.7152C15.4905 46.9151 15.3753 47.1961 15.3311 47.5586H17.325V47.5069C17.3054 47.1592 17.2121 46.8903 17.0454 46.7004C16.8785 46.5082 16.6529 46.412 16.3685 46.412ZM21.2537 49.926C21.2143 49.847 21.1824 49.7066 21.158 49.5042C20.8416 49.8346 20.4639 50 20.025 50C19.6326 50 19.3102 49.889 19.0575 49.667C18.8075 49.4425 18.6823 49.159 18.6823 48.8163C18.6823 48.3996 18.8393 48.0765 19.1532 47.8472C19.4694 47.6152 19.9135 47.4994 20.4848 47.4994H21.147V47.1851C21.147 46.9458 21.0758 46.7559 20.9337 46.6154C20.7914 46.4723 20.5816 46.4009 20.3045 46.4009C20.0617 46.4009 19.8583 46.4624 19.694 46.5858C19.5297 46.709 19.4474 46.8583 19.4474 47.0334H18.7633C18.7633 46.8337 18.8332 46.6413 18.9729 46.4562C19.1151 46.2689 19.3065 46.121 19.5468 46.0124C19.7896 45.904 20.0555 45.8496 20.345 45.8496C20.8037 45.8496 21.1629 45.9655 21.4228 46.1975C21.6828 46.4268 21.8176 46.7437 21.8275 47.148V48.9901C21.8275 49.3576 21.8741 49.6498 21.9673 49.8667V49.926H21.2537ZM20.1244 49.4045C20.3377 49.4045 20.54 49.349 20.7313 49.238C20.9225 49.127 21.061 48.9828 21.147 48.8052V47.9841H20.6135C19.7797 47.9841 19.3628 48.2293 19.3628 48.7201C19.3628 48.9346 19.434 49.1024 19.5761 49.2232C19.7184 49.3439 19.9011 49.4045 20.1244 49.4045ZM24.4907 49.4414C24.7335 49.4414 24.9457 49.3674 25.1272 49.2194C25.3086 49.0715 25.4091 48.8866 25.4287 48.6646H26.0726C26.0603 48.8939 25.9818 49.1122 25.8371 49.3194C25.6924 49.5266 25.4986 49.6918 25.2558 49.815C25.0155 49.9383 24.7606 50 24.4907 50C23.9488 50 23.5171 49.8187 23.1958 49.4562C22.8771 49.0912 22.7177 48.5931 22.7177 47.9618V47.8472C22.7177 47.4575 22.7887 47.111 22.931 46.8078C23.0733 46.5044 23.2768 46.2689 23.5417 46.1013C23.809 45.9334 24.1241 45.8496 24.487 45.8496C24.9334 45.8496 25.3038 45.9841 25.598 46.253C25.8947 46.5217 26.0529 46.8706 26.0726 47.2997H25.4287C25.4091 47.0407 25.311 46.8286 25.1345 46.6634C24.9605 46.4958 24.7445 46.412 24.487 46.412C24.1413 46.412 23.8727 46.5376 23.6814 46.7892C23.4927 47.0383 23.3982 47.3996 23.3982 47.8731V48.0025C23.3982 48.4635 23.4927 48.8187 23.6814 49.0677C23.8703 49.3169 24.1402 49.4414 24.4907 49.4414ZM27.761 44.9546V45.9237H28.5041V46.4527H27.761V48.9346C27.761 49.0949 27.7942 49.2157 27.8604 49.297C27.9266 49.376 28.0394 49.4155 28.1988 49.4155C28.2772 49.4155 28.3851 49.4007 28.5224 49.3711V49.926C28.3434 49.9753 28.1694 50 28.0001 50C27.6961 50 27.4667 49.9074 27.3121 49.7225C27.1577 49.5376 27.0805 49.2749 27.0805 48.9346V46.4527H26.3557V45.9237H27.0805V44.9546H27.761ZM35.3941 49.926H34.684L31.9877 45.7757V49.926H31.2778V44.5402H31.9877L34.6914 48.709V44.5402H35.3941V49.926ZM38.9991 49.926C38.9597 49.847 38.9278 49.7066 38.9034 49.5042C38.5869 49.8346 38.2093 50 37.7704 50C37.378 50 37.0554 49.889 36.8029 49.667C36.5528 49.4425 36.4277 49.159 36.4277 48.8163C36.4277 48.3996 36.5845 48.0765 36.8986 47.8472C37.2148 47.6152 37.6588 47.4994 38.2302 47.4994H38.8924V47.1851C38.8924 46.9458 38.8212 46.7559 38.6789 46.6154C38.5368 46.4723 38.327 46.4009 38.0499 46.4009C37.8071 46.4009 37.6036 46.4624 37.4394 46.5858C37.2751 46.709 37.1928 46.8583 37.1928 47.0334H36.5086C36.5086 46.8337 36.5786 46.6413 36.7182 46.4562C36.8605 46.2689 37.0519 46.121 37.2922 46.0124C37.535 45.904 37.8009 45.8496 38.0903 45.8496C38.5489 45.8496 38.9082 45.9655 39.1682 46.1975C39.4281 46.4268 39.563 46.7437 39.5728 47.148V48.9901C39.5728 49.3576 39.6195 49.6498 39.7127 49.8667V49.926H38.9991ZM37.8697 49.4045C38.0831 49.4045 38.2854 49.349 38.4767 49.238C38.6679 49.127 38.8064 48.9828 38.8924 48.8052V47.9841H38.3589C37.5251 47.9841 37.1082 48.2293 37.1082 48.7201C37.1082 48.9346 37.1794 49.1024 37.3215 49.2232C37.4638 49.3439 37.6465 49.4045 37.8697 49.4045ZM41.5629 44.9546V45.9237H42.306V46.4527H41.5629V48.9346C41.5629 49.0949 41.5961 49.2157 41.6623 49.297C41.7285 49.376 41.8413 49.4155 42.0008 49.4155C42.0791 49.4155 42.1871 49.4007 42.3245 49.3711V49.926C42.1453 49.9753 41.9713 50 41.802 50C41.498 50 41.2687 49.9074 41.1141 49.7225C40.9597 49.5376 40.8825 49.2749 40.8825 48.9346V46.4527H40.1578V45.9237H40.8825V44.9546H41.5629ZM43.8437 49.926H43.1631V45.9237H43.8437V49.926ZM43.1079 44.862C43.1079 44.7512 43.1411 44.6574 43.2073 44.5809C43.2759 44.5044 43.3764 44.4663 43.5088 44.4663C43.6414 44.4663 43.7419 44.5044 43.8105 44.5809C43.8792 44.6574 43.9135 44.7512 43.9135 44.862C43.9135 44.973 43.8792 45.0654 43.8105 45.1395C43.7419 45.2134 43.6414 45.2505 43.5088 45.2505C43.3764 45.2505 43.2759 45.2134 43.2073 45.1395C43.1411 45.0654 43.1079 44.973 43.1079 44.862ZM46.2495 48.9976L47.2352 45.9237H47.9306L46.5033 49.926H45.9845L44.5427 45.9237H45.2378L46.2495 48.9976ZM50.1855 50C49.646 50 49.207 49.8225 48.8686 49.4673C48.5301 49.1097 48.361 48.6325 48.361 48.0358V47.91C48.361 47.513 48.4357 47.1592 48.5853 46.8485C48.7373 46.5352 48.9482 46.291 49.218 46.1161C49.4903 45.9385 49.7845 45.8496 50.1008 45.8496C50.6183 45.8496 51.0205 46.021 51.3075 46.3638C51.5943 46.7066 51.7379 47.1973 51.7379 47.8359V48.1208H49.0414C49.0513 48.5155 49.1652 48.8348 49.3836 49.079C49.6042 49.3205 49.8839 49.4414 50.2222 49.4414C50.4626 49.4414 50.6662 49.3921 50.8329 49.2935C50.9996 49.1948 51.1456 49.0642 51.2708 48.9014L51.6864 49.2269C51.3528 49.7422 50.8525 50 50.1855 50ZM50.1008 46.412C49.8263 46.412 49.5956 46.513 49.4093 46.7152C49.2229 46.9151 49.1076 47.1961 49.0636 47.5586H51.0572V47.5069C51.0377 47.1592 50.9444 46.8903 50.7777 46.7004C50.611 46.5082 50.3854 46.412 50.1008 46.412Z" fill="#61DAFB"/>
</g>
<defs>
<clipPath id="clip0_33_53">
<rect width="62" height="50" fill="white"/>
</clipPath>
</defs>
</svg>
