<svg width="22" height="25" viewBox="0 0 22 25" fill="none" xmlns="http://www.w3.org/2000/svg">
<path d="M22 12.5023C22 11.0488 20.1749 9.67143 17.3767 8.81727C18.0224 5.97303 17.7354 3.71016 16.4709 2.98568C16.1794 2.81574 15.8386 2.73525 15.4664 2.73525V3.73252C15.6726 3.73252 15.8386 3.77277 15.9776 3.84879C16.5874 4.19761 16.852 5.52582 16.6457 7.23415C16.5964 7.65453 16.5157 8.09726 16.417 8.54894C15.5381 8.33428 14.5785 8.16882 13.5695 8.06149C12.9641 7.23415 12.3363 6.48284 11.704 5.82545C13.1659 4.47041 14.5381 3.72805 15.4709 3.72805V2.73077C14.2377 2.73077 12.6233 3.6073 10.991 5.12781C9.35874 3.61625 7.74439 2.74866 6.51121 2.74866V3.74593C7.43946 3.74593 8.81614 4.48383 10.278 5.82992C9.65022 6.48732 9.02242 7.23415 8.42601 8.06149C7.41256 8.16882 6.45292 8.33428 5.57399 8.55341C5.47085 8.10621 5.39462 7.67242 5.34081 7.25651C5.13004 5.54818 5.39013 4.21997 5.99552 3.86668C6.13005 3.78618 6.30493 3.75041 6.51121 3.75041V2.75313C6.13453 2.75313 5.79372 2.83363 5.49776 3.00357C4.23767 3.72805 3.95516 5.98644 4.60538 8.82174C1.81614 9.68038 0 11.0533 0 12.5023C0 13.9557 1.82511 15.3331 4.62332 16.1872C3.97758 19.0315 4.26457 21.2944 5.52915 22.0188C5.82063 22.1888 6.16144 22.2693 6.53812 22.2693C7.7713 22.2693 9.38565 21.3927 11.0179 19.8722C12.6502 21.3838 14.2646 22.2514 15.4978 22.2514C15.8744 22.2514 16.2152 22.1709 16.5112 22.0009C17.7713 21.2765 18.0538 19.0181 17.4036 16.1828C20.1839 15.3286 22 13.9512 22 12.5023ZM16.1614 9.51938C15.9955 10.0963 15.7892 10.6911 15.5561 11.2859C15.3722 10.9281 15.1794 10.5703 14.9686 10.2126C14.7623 9.85479 14.5426 9.50597 14.3229 9.16609C14.9596 9.26 15.574 9.37628 16.1614 9.51938ZM14.1076 14.2821C13.7578 14.8859 13.3991 15.4583 13.0269 15.9905C12.3587 16.0486 11.6816 16.0799 11 16.0799C10.3229 16.0799 9.64574 16.0486 8.98206 15.9949C8.60987 15.4628 8.24664 14.8948 7.89686 14.2956C7.55605 13.7097 7.24664 13.1149 6.96413 12.5157C7.24215 11.9164 7.55605 11.3172 7.89238 10.7313C8.24215 10.1276 8.6009 9.55516 8.97309 9.02298C9.64126 8.96485 10.3184 8.93354 11 8.93354C11.6771 8.93354 12.3543 8.96485 13.0179 9.01851C13.3901 9.55069 13.7534 10.1186 14.1031 10.7179C14.4439 11.3037 14.7534 11.8985 15.0359 12.4978C14.7534 13.097 14.4439 13.6963 14.1076 14.2821ZM15.5561 13.7008C15.7982 14.3 16.0045 14.8993 16.1749 15.4807C15.5874 15.6238 14.9686 15.7445 14.3274 15.8384C14.5471 15.4941 14.7668 15.1408 14.9731 14.7785C15.1794 14.4208 15.3722 14.0585 15.5561 13.7008ZM11.009 18.4725C10.5919 18.0432 10.1749 17.5646 9.76233 17.0414C10.1659 17.0593 10.5785 17.0727 10.9955 17.0727C11.417 17.0727 11.8341 17.0638 12.2422 17.0414C11.8386 17.5646 11.4215 18.0432 11.009 18.4725ZM7.67265 15.8384C7.03587 15.7445 6.42152 15.6282 5.83408 15.4851C6 14.9082 6.20628 14.3134 6.43946 13.7187C6.62332 14.0764 6.81614 14.4342 7.02691 14.792C7.23767 15.1497 7.45291 15.4985 7.67265 15.8384ZM10.9865 6.53204C11.4036 6.96136 11.8206 7.43987 12.2332 7.9631C11.8296 7.94521 11.417 7.9318 11 7.9318C10.5785 7.9318 10.1614 7.94074 9.75336 7.9631C10.157 7.43987 10.574 6.96136 10.9865 6.53204ZM7.66816 9.16609C7.44843 9.51044 7.2287 9.86373 7.02242 10.226C6.81614 10.5837 6.62332 10.9415 6.43946 11.2993C6.19731 10.7 5.99103 10.1008 5.82063 9.51938C6.40807 9.38075 7.02691 9.26 7.66816 9.16609ZM3.60987 14.7651C2.02242 14.0898 0.995516 13.2044 0.995516 12.5023C0.995516 11.8001 2.02242 10.9102 3.60987 10.2394C3.99552 10.0739 4.41704 9.92634 4.85202 9.78771C5.10762 10.6642 5.44395 11.5765 5.86099 12.5112C5.44843 13.4414 5.11659 14.3492 4.86547 15.2213C4.42153 15.0826 4 14.9306 3.60987 14.7651ZM6.02242 21.1557C5.41256 20.8069 5.14798 19.4787 5.35426 17.7704C5.40359 17.35 5.48431 16.9073 5.58296 16.4556C6.46188 16.6702 7.42153 16.8357 8.43049 16.943C9.03588 17.7704 9.66368 18.5217 10.296 19.1791C8.83408 20.5341 7.46188 21.2765 6.52915 21.2765C6.32735 21.272 6.15695 21.2317 6.02242 21.1557ZM16.6592 17.748C16.87 19.4563 16.6099 20.7845 16.0045 21.1378C15.87 21.2183 15.6951 21.2541 15.4888 21.2541C14.5605 21.2541 13.1839 20.5162 11.722 19.1701C12.3498 18.5127 12.9776 17.7659 13.574 16.9386C14.5874 16.8312 15.5471 16.6658 16.426 16.4466C16.5291 16.8983 16.6099 17.3321 16.6592 17.748ZM18.3857 14.7651C18 14.9306 17.5785 15.0782 17.1435 15.2168C16.8879 14.3403 16.5516 13.428 16.1345 12.4933C16.5471 11.5631 16.8789 10.6553 17.13 9.78324C17.574 9.92187 17.9955 10.0739 18.3901 10.2394C19.9776 10.9147 21.0045 11.8001 21.0045 12.5023C21 13.2044 19.9731 14.0943 18.3857 14.7651Z" fill="#61DAFB"/>
<path d="M10.9955 14.546C12.1273 14.546 13.0448 13.631 13.0448 12.5022C13.0448 11.3735 12.1273 10.4585 10.9955 10.4585C9.86368 10.4585 8.94617 11.3735 8.94617 12.5022C8.94617 13.631 9.86368 14.546 10.9955 14.546Z" fill="#61DAFB"/>
</svg>
