<svg width="199" height="288" viewBox="0 0 199 288" fill="none" xmlns="http://www.w3.org/2000/svg">
<path d="M145.75 25.9291C147.331 27.479 148.907 29.0324 150.481 30.5893C151.639 31.7329 151.639 31.7329 152.82 32.8996C153.536 33.6196 154.251 34.3396 154.989 35.0815C155.637 35.7323 156.286 36.3831 156.954 37.0536C158.356 38.7143 158.356 38.7143 158.356 40.7143C158.931 40.9527 159.506 41.1912 160.098 41.4369C162.831 42.9832 164.424 44.7799 166.481 47.1518C168.926 49.9505 171.369 52.7285 173.918 55.433C189.366 71.8231 198.547 91.9383 198.356 114.714C197.365 130.876 191.411 143.674 182.356 156.714C181.696 157.704 181.036 158.694 180.356 159.714C177.105 158.319 175.282 156.746 173.043 154.027C172.43 153.31 171.816 152.593 171.184 151.855C170.581 151.149 169.977 150.442 169.356 149.714C163.146 142.48 154.864 136.968 146.356 132.714C146.896 130.015 147.744 127.825 148.856 125.277C152.146 117.464 152.06 110.28 149.454 102.253C143.98 89.5932 130.826 78.9173 121.228 69.1811C120.104 68.0356 118.986 66.8838 117.875 65.726C108.856 56.3351 99.6804 48.0924 85.9379 47.6205C77.0108 47.9446 70.313 51.0602 63.3558 56.7143C56.8998 63.7747 55.0346 71.2741 55.4183 80.6518C56.5025 90.2391 60.4201 96.4323 67.6259 102.653C72.6321 106.433 78.1903 109.128 83.7933 111.902C85.0728 112.548 86.3517 113.195 87.63 113.843C90.8952 115.495 94.1684 117.131 97.4443 118.761C100.458 120.264 103.465 121.779 106.473 123.292C114.347 127.247 122.225 131.192 130.145 135.054C153.939 146.689 171.575 162.125 180.707 187.464C186.474 206.382 185.122 226.003 176.606 243.964C166.341 263.108 150.21 278.05 129.356 284.714C108.962 290.25 88.0687 288.709 69.3558 278.714C65.5117 276.248 61.9102 273.579 58.3558 270.714C57.75 270.237 57.1441 269.76 56.5199 269.269C51.2217 264.993 46.6667 259.997 42.1058 254.964C38.5483 251.049 34.9169 247.252 31.1097 243.578C13.3925 226.47 0.742929 207.161 0.00426501 181.675C-0.161585 164.263 4.51334 148.668 13.3558 133.714C14.0365 134.395 14.7171 135.076 15.4183 135.777C15.8811 136.236 16.3439 136.695 16.8207 137.167C17.8495 138.204 18.8626 139.257 19.8597 140.324C28.0525 148.931 37.6192 154.768 48.3558 159.714C47.6333 162.962 46.5134 165.935 45.2933 169.027C42.4691 176.858 43.0384 182.243 46.0199 189.929C49.155 196.465 53.6108 201.362 59.3558 205.714C59.3558 206.374 59.3558 207.034 59.3558 207.714C60.284 208.086 60.284 208.086 61.2308 208.464C63.7594 209.952 64.0742 211.151 65.3558 213.714C65.9333 214.003 66.5108 214.292 67.1058 214.589C70.443 216.258 73.0039 218.829 75.3558 221.714C75.3558 222.374 75.3558 223.034 75.3558 223.714C75.9746 223.962 76.5933 224.209 77.2308 224.464C79.7065 225.921 80.3071 227.092 81.3558 229.714C82.0158 229.714 82.6758 229.714 83.3558 229.714C84.0571 230.436 84.7583 231.158 85.4808 231.902C91.3164 237.891 96.9958 240.501 105.356 240.714C105.356 241.044 105.356 241.374 105.356 241.714C114.769 241.677 123.14 239.294 130.34 232.972C136.82 225.755 138.748 218.132 138.633 208.621C137.875 200.673 133.89 193.376 128.356 187.714C121.108 182.434 113.136 178.399 105.106 174.464C103.979 173.906 102.852 173.348 101.691 172.774C94.3155 169.133 86.9061 165.565 79.4808 162.027C75.7718 160.257 72.0635 158.487 68.3558 156.714C67.4554 156.285 66.555 155.856 65.6273 155.414C41.6253 143.922 21.6162 130.509 12.2855 104.543C5.29163 84.1747 7.32548 63.0233 16.4242 43.537C26.1584 24.492 42.3933 11.1421 62.3807 3.98965C93.9142 -6.08492 122.563 3.53444 145.75 25.9291Z" fill="url(#paint0_linear_93_4)"/>
<defs>
<linearGradient id="paint0_linear_93_4" x1="99.1794" y1="0" x2="99.1794" y2="287.884" gradientUnits="userSpaceOnUse">
<stop stop-color="#FF0059"/>
<stop offset="0.495225"/>
<stop offset="0.985642" stop-color="#61DAFB"/>
</linearGradient>
</defs>
</svg>
