<svg width="24" height="24" viewBox="0 0 24 24" fill="none" xmlns="http://www.w3.org/2000/svg">
<g clip-path="url(#clip0_33_21)">
<path d="M23.7508 3.6633L12.6383 23.4548C12.4088 23.8634 11.8194 23.8658 11.5865 23.4592L0.253739 3.66514C-1.04367e-05 3.22207 0.380429 2.68531 0.8846 2.77514L12.009 4.7555C12.08 4.76814 12.1526 4.76801 12.2236 4.75514L23.1153 2.7779C23.6178 2.68669 24 3.21931 23.7508 3.6633Z" fill="url(#paint0_linear_33_21)"/>
<path d="M17.3081 0.177378L9.0846 1.78232C9.0189 1.79514 8.95933 1.82935 8.91527 1.87956C8.87121 1.92978 8.84516 1.99315 8.8412 2.05972L8.33537 10.5691C8.33259 10.6158 8.34077 10.6625 8.35926 10.7054C8.37775 10.7484 8.40605 10.7865 8.4419 10.8167C8.47775 10.8468 8.52017 10.8683 8.56579 10.8793C8.61141 10.8903 8.65898 10.8905 8.70472 10.88L10.9943 10.3537C11.2085 10.3045 11.4021 10.4924 11.358 10.707L10.6778 14.0247C10.632 14.2479 10.8425 14.4388 11.0614 14.3726L12.4756 13.9447C12.6948 13.8784 12.9054 14.0698 12.8591 14.2933L11.7781 19.5046C11.7104 19.8305 12.1458 20.0083 12.3273 19.7288L12.4486 19.5422L19.1496 6.22257C19.2618 5.99956 19.0682 5.74526 18.8224 5.79257L16.4656 6.24558C16.2442 6.2881 16.0558 6.08267 16.1182 5.86694L17.6564 0.555927C17.719 0.33964 17.5298 0.134121 17.3081 0.177378Z" fill="url(#paint1_linear_33_21)"/>
</g>
<defs>
<linearGradient id="paint0_linear_33_21" x1="-50.6994" y1="417.059" x2="3541.32" y2="4248.09" gradientUnits="userSpaceOnUse">
<stop stop-color="#41D1FF"/>
<stop offset="0.947178" stop-color="#BD34FE"/>
<stop offset="1" stop-color="#BD34FE"/>
</linearGradient>
<linearGradient id="paint1_linear_33_21" x1="1230.37" y1="114.033" x2="1865.57" y2="4457.32" gradientUnits="userSpaceOnUse">
<stop stop-color="#FFEA83"/>
<stop offset="0.083" stop-color="#FFDD35"/>
<stop offset="1" stop-color="#FFA800"/>
</linearGradient>
<clipPath id="clip0_33_21">
<rect width="24" height="24" fill="white"/>
</clipPath>
</defs>
</svg>
